<svg height="512pt" viewBox="0 0 512 512" width="512pt" xmlns="http://www.w3.org/2000/svg"><path d="m444.5 405h-377c-37.21875 0-67.5 30.28125-67.5 67.5v32c0 4.140625 3.359375 7.5 7.5 7.5h497c4.144531 0 7.5-3.359375 7.5-7.5v-32c0-37.21875-30.28125-67.5-67.5-67.5zm52.5 92h-482v-24.5c0-28.949219 23.550781-52.5 52.5-52.5h40.535156c3.660156 25.960938 26.011719 46 52.964844 46h11.894531l12.800781 12.804688c2.929688 2.925781 7.679688 2.925781 10.609376 0l12.800781-12.804688h28.789062l12.800781 12.804688c1.464844 1.460937 3.382813 2.195312 5.304688 2.195312 1.917969 0 3.839844-.730469 5.304688-2.195312l12.800781-12.804688h31.894531c4.144531 0 7.5-3.359375 7.5-7.5s-3.355469-7.5-7.5-7.5h-35c-1.988281 0-3.894531.789062-5.304688 2.195312l-9.695312 9.699219-9.695312-9.699219c-1.40625-1.40625-3.316407-2.195312-5.304688-2.195312h-35c-1.988281 0-3.898438.789062-5.304688 2.195312l-9.695312 9.699219-9.695312-9.699219c-1.40625-1.40625-3.316407-2.195312-5.304688-2.195312h-15c-18.664062 0-34.261719-13.351562-37.761719-31h265.523438c-3.5 17.648438-19.101563 31-37.761719 31h-15c-4.144531 0-7.5 3.359375-7.5 7.5s3.355469 7.5 7.5 7.5h15c26.953125 0 49.304688-20.039062 52.964844-46h40.535156c28.949219 0 52.5 23.550781 52.5 52.5zm0 0"/><path d="m300.878906 205h45c4.160156 0 7.519532-3.359375 7.519532-7.5 0-.207031-.007813-.414062-.023438-.617188-.332031-20.394531-17.023438-36.882812-37.496094-36.882812h-45c-4.144531 0-7.5 3.359375-7.5 7.5 0 20.679688 16.820313 37.5 37.5 37.5zm15-30c9.777344 0 18.117188 6.269531 21.214844 15h-36.214844c-9.777344 0-18.117187-6.269531-21.214844-15zm0 0"/><path d="m165.878906 205h45c20.679688 0 37.5-16.820312 37.5-37.5 0-4.140625-3.359375-7.5-7.5-7.5h-45c-20.679687 0-37.5 16.820312-37.5 37.5 0 4.140625 3.359375 7.5 7.5 7.5zm30-30h36.214844c-3.09375 8.730469-11.4375 15-21.214844 15h-36.214844c3.09375-8.730469 11.4375-15 21.214844-15zm0 0"/><path d="m300.878906 220c-4.144531 0-7.5 3.359375-7.5 7.5v8c0 4.140625 3.355469 7.5 7.5 7.5 4.144532 0 7.5-3.359375 7.5-7.5v-.5h22.5c4.144532 0 7.5-3.359375 7.5-7.5s-3.355468-7.5-7.5-7.5zm0 0"/><path d="m210.878906 243c4.140625 0 7.5-3.359375 7.5-7.5v-8c0-4.140625-3.359375-7.5-7.5-7.5h-30c-4.140625 0-7.5 3.359375-7.5 7.5s3.359375 7.5 7.5 7.5h22.5v.5c0 4.140625 3.359375 7.5 7.5 7.5zm0 0"/><path d="m248.378906 295.5c0-4.140625-3.359375-7.5-7.5-7.5s-7.5 3.359375-7.5 7.5v7.5h-15v-7.5c0-20.679688-16.820312-37.5-37.5-37.5-4.140625 0-7.5 3.359375-7.5 7.5v45c0 4.140625 3.359375 7.5 7.5 7.5h150c4.144532 0 7.5-3.359375 7.5-7.5v-45c0-4.140625-3.355468-7.5-7.5-7.5-20.679687 0-37.5 16.820312-37.5 37.5v7.5h-15v-7.5c0-4.140625-3.355468-7.5-7.5-7.5-4.144531 0-7.5 3.359375-7.5 7.5v7.5h-15zm-45 7.5h-15v-28.714844c8.730469 3.09375 15 11.4375 15 21.214844zm105-7.5c0-9.777344 6.269532-18.121094 15-21.214844v28.714844h-15zm0 0"/><path d="m67.5 390h376.996094c37.21875 0 67.5-30.28125 67.5-67.5 0-27.683594-16.851563-52.394531-42.304688-62.621094-5.957031-15.402344-18.578125-26.789062-33.976562-31.3125 5.027344-7.636718 7.785156-16.632812 7.785156-26.066406v-43.785156c8.730469-3.097656 15-11.4375 15-21.214844 0-12.40625-10.09375-22.5-22.5-22.5-17.417969 0-32.667969 9.429688-40.9375 23.445312l-18.789062-53.328124c-17.9375-50.910157-66.273438-85.117188-120.273438-85.117188s-102.335938 34.207031-120.273438 85.121094l-18.789062 53.324218c-8.269531-14.015624-23.519531-23.445312-40.9375-23.445312-12.40625 0-22.5 10.09375-22.5 22.5 0 9.777344 6.269531 18.121094 15 21.214844v43.785156c0 9.433594 2.753906 18.429688 7.785156 26.066406-15.398437 4.523438-28.023437 15.910156-33.980468 31.3125-25.453126 10.226563-42.304688 34.9375-42.304688 62.621094 0 37.21875 30.28125 67.5 67.5 67.5zm389.101562-122.113281c.707032 2.300781 2.476563 4.125 4.757813 4.898437 21.316406 7.226563 35.636719 27.207032 35.636719 49.714844 0 28.949219-23.550782 52.5-52.5 52.5h-46.59375c27.375-17.285156 45.597656-47.800781 45.597656-82.5 0-11.007812-1.847656-21.835938-5.496094-32.191406l-6.0625-17.203125c11.609375 3.585937 20.933594 12.65625 24.660156 24.78125zm-20.601562-137.886719c4.136719 0 7.5 3.363281 7.5 7.5s-3.363281 7.5-7.5 7.5c-4.144531 0-7.5 3.359375-7.5 7.5v50c0 6.148438-1.710938 12.027344-4.84375 17.089844l-20.152344-57.195313c.054688-17.871093 14.609375-32.394531 32.496094-32.394531zm-286.128906-39.894531c15.828125-44.921875 58.480468-75.105469 106.128906-75.105469s90.300781 30.183594 106.128906 75.105469l23.488282 66.664062c-9.132813-.097656-17.679688-5.789062-20.941407-14.859375l-16.707031-46.847656c-1.066406-2.984375-3.894531-4.980469-7.066406-4.980469-34.941406 0-66.222656-22.132812-77.832032-55.074219-1.054687-3-3.890624-5.007812-7.070312-5.007812-3.183594 0-6.019531 2.007812-7.074219 5.007812-11.609375 32.941407-42.886719 55.074219-77.832031 55.074219-3.171875 0-6 2-7.066406 4.988281-.113282.320313-16.699219 46.824219-16.699219 46.820313-2.035156 5.65625-6.148437 10.179687-11.585937 12.738281-2.980469 1.402344-6.15625 2.097656-9.355469 2.128906zm-28.660156 81.347656c1.652343.222656 3.3125.335937 4.972656.335937 5.445312 0 10.871094-1.199218 15.945312-3.589843 9.0625-4.265625 15.921875-11.804688 19.320313-21.25l14.097656-39.527344c.332031-.925781.625-1.75.886719-2.484375 33.390625-1.832031 63.351562-20.722656 79.5625-49.386719 16.21875 28.664063 46.175781 47.554688 79.566406 49.386719l14.992188 42.03125c6.078124 16.894531 23.109374 26.753906 40.230468 24.472656l33.066406 93.851563c3.085938 8.75 4.648438 17.902343 4.648438 27.207031 0 45.492188-37.011719 82.5-82.5 82.5h-180c-45.492188 0-82.5-37.011719-82.5-82.5 0-9.304688 1.5625-18.457031 4.644531-27.207031zm-45.210938-26.453125c-4.136719 0-7.5-3.363281-7.5-7.5s3.363281-7.5 7.5-7.5c17.886719 0 32.441406 14.523438 32.496094 32.394531l-20.152344 57.195313c-3.136719-5.0625-4.84375-10.941406-4.84375-17.089844v-50c0-4.144531-3.359375-7.5-7.5-7.5zm-25.363281 127.785156c2.28125-.773437 4.050781-2.597656 4.757812-4.898437 3.726563-12.125 13.054688-21.195313 24.664063-24.78125l-6.0625 17.203125c-3.644532 10.351562-5.496094 21.183594-5.496094 32.191406 0 34.699219 18.222656 65.21875 45.597656 82.5h-46.597656c-28.949219 0-52.5-23.550781-52.5-52.5 0-22.507812 14.320312-42.488281 35.636719-49.714844zm0 0"/><path d="m338.378906 340.5c0 4.140625-3.359375 7.5-7.5 7.5s-7.5-3.359375-7.5-7.5 3.359375-7.5 7.5-7.5 7.5 3.359375 7.5 7.5zm0 0"/></svg>